<?xml version="1.0" encoding="utf-8"?>
<!-- Generator: Adobe Illustrator 28.0.0, SVG Export Plug-In . SVG Version: 6.00 Build 0)  -->
<svg version="1.1" id="Layer_1" xmlns="http://www.w3.org/2000/svg" xmlns:xlink="http://www.w3.org/1999/xlink" x="0px" y="0px"
	 viewBox="0 0 512 512" style="enable-background:new 0 0 512 512;" xml:space="preserve">
<style type="text/css">
	.st0{fill:#DBB471;}
	.st1{opacity:0.5;enable-background:new    ;}
	.st2{fill:#89664D;}
	.st3{fill:#69973F;}
	.st4{fill:#84BF4D;}
	.st5{fill:none;stroke:#69973F;stroke-width:1.2558;stroke-miterlimit:10;}
	.st6{fill:#F9F3D9;}
	.st7{font-family:'ComicSansMS';}
	.st8{font-size:203.576px;}
	.st9{fill:#E8E8E8;}
</style>
<g>
	<g>
		<path class="st0" d="M431.5,375.3c0,97.1-78.7,96.8-175.8,96.8s-175.8,0.3-175.8-96.8s78.7-254.8,175.8-254.8
			S431.5,278.2,431.5,375.3z"/>
		<g class="st1">
			<path class="st2" d="M431.5,375.3c0-32.9-9.1-72.8-24.8-111.2c2.9,25-3.4,69.1-79.1,85.2c-107.9,22.9-52.2,53.9-94,57.4
				c-36.1,3-131.7-11.5-150.9-65.6c-1.8,11.9-2.9,23.4-2.9,34.2c0,97.1,78.7,96.8,175.8,96.8S431.5,472.3,431.5,375.3z"/>
		</g>
		<polygon class="st3" points="271.5,440.3 253.4,440.3 253.4,472 327.7,512 495.5,460.1 495.5,432.3 434.2,396.1 		"/>
		<path class="st4" d="M255.7,422.1c0,0,19.5,31,73.6,58c0,0,84.4-4,166.2-58c0,0-47.5-22.9-60.7-53.9
			C434.8,368.2,402.5,412.6,255.7,422.1z"/>
		<polygon class="st3" points="219.6,439.7 237.3,438.2 239.7,468.3 170.4,512 2.9,475.9 0.8,449.6 57.7,410.6 		"/>
		<path class="st4" d="M233.6,421.2c0,0-16.6,30.9-67.2,60.7c0,0-82.6,2.8-166.4-41.9c0,0,44.5-25.4,55-55.8
			C55,384.1,89.9,423.7,233.6,421.2z"/>
		<path class="st5" d="M193.7,429.6c0,0-2.5,6.5,8.9,6.8l-29.7,25c0,0-17.2-2-21.2,10.3c0,0-71.9-7.6-118.2-28.6
			c0,0,9.4-7.5-2.1-12.1c0,0,13.6-9.8,16.8-18.3c0,0,12.4,1.7,17-8.3C65.3,404.3,113.9,433,193.7,429.6z"/>
		<ellipse class="st3" cx="70.6" cy="430.4" rx="15.3" ry="10.3"/>
		<path class="st6" d="M151.8,417.4c0,0-18.6,24.1-58,56.4l1.8,22.1l-28.2-6.1l-1.9-23.2c0,0,40.5-37.7,49.8-55.7
			C115.2,410.9,129.2,415.1,151.8,417.4z"/>
		<text transform="matrix(1 0 0 1 186.7793 395.1334)" class="st2 st7 st8">K</text>
		<path class="st6" d="M336.3,412.3c0,0,7.4,19,61.3,54.7v23.4l31-9.6v-24.3c0,0-37.6-26.2-60-52.9L336.3,412.3z"/>
		<polygon class="st3" points="290.9,386.6 273.2,385.6 271.7,418.6 342.8,464.1 509.7,418.9 511,390 452.5,349.2 		"/>
		<path class="st4" d="M276.3,366.9c0,0,17.7,33.2,69.5,64.1c0,0,83,0.2,165.7-51.5c0,0-45.5-26.3-57.1-59.2
			C454.4,320.2,420.7,364.7,276.3,366.9z"/>
		<path class="st5" d="M312.3,375.6c0,0,4.1,6.1-8.7,8.6l33.5,26.7c0,0,18.9-5.1,25.8,6.6c0,0,79.9-14,116.5-33.3c0,0-12-5.9,0-12.7
			c0,0-14.6-11.9-20-20c0,0-13.6,4-20.6-5.4C438.9,346.2,410.2,371,312.3,375.6z"/>
		<path class="st3" d="M374,395.2c-3.5,4.3-13.3,5.9-22.1,3.5c-8.8-2.3-13.1-7.8-9.7-12.1c3.5-4.3,13.4-5.9,22.1-3.5
			C373.1,385.5,377.4,390.9,374,395.2z"/>
		<path class="st6" d="M358.3,359.9c0,0,19.5,25.7,60.1,59.7l-1.1,24.3l28.1-7.6l1.1-25.5c0,0-41.9-39.8-51.8-59.2
			C394.8,351.5,380.9,356.6,358.3,359.9z"/>
		<path class="st0" d="M367.6,16.5c0,48.5-62.8,127.9-111.9,127.9S143.8,73,143.8,24.5c0-48.5,6.8,0,55.9,0c7,0,41.1-24,55.9-24
			c10.6,0,39.7,24,55.9,24C354.3,24.5,367.6-20,367.6,16.5z"/>
		<path class="st2" d="M241.1,106.5c-4.8,2.9-27.6,0.5-35.2,6.6c-9.3,7.5,4.2,24.3-5.4,34.2c-18.9,19.5-34.3,40.9-29.8,53.1
			c7.7,20.6,23-38.1,37-16.1c14,22.1,11-14.8,32,4.1c21,18.9,2.9-34,23.5-11s21.1,49.9,35.5,49.9c17,0-18-62.8,5-47.9
			c23,14.9,46.9,9.8,24.7-13.6c-6.9-7.3-17.1-19.9-28.1-31.3c-4.2-4.3-0.4-24.4-4.7-28.1c-4.5-3.8-16.9,9-21.2,6.7
			c-9.2-4.9-6.2,4.1-20.8,6.7C243,121.8,251.1,100.5,241.1,106.5z"/>
		<path class="st9" d="M149.5,154c30.9-29.5,88.1-13,121.1,1.2c32.4,14,52.4-31.5,32.1-54.2c-11.9-13.3-30.8,2.7-38.7,11.8
			c-8.1,9.4-14.5,20.1-22.8,29.3c-12.9,14.2-44.3,2.5-34.2-17.9c10.2-20.6,54.3,3.2,69,7.4c28.1,8.1,57.9,11.1,85.9,1.1
			c9.6-3.5,5.5-18.9-4.2-15.4c-30.9,11.1-62,3.9-92.3-5.6c-15-4.7-39.5-17.9-55.5-10.4c-45.6,21.4-2.9,83.2,34.9,58.9
			c8.6-5.5,14.7-14.7,20.6-22.7c3.7-4.9,23.9-35.4,28.6-20.2c2.4,7.7,0.2,22-8.5,25.1c-5.8,2.1-17.1-5.3-22.7-7.6
			c-10.2-4.1-20.9-6.9-31.6-9.2c-29.3-6.3-69.6-5.1-92.9,17.1C130.7,149.9,142,161.2,149.5,154z"/>
		<path class="st2" d="M358.3,4.8c-8.3,5.9-23,19.7-46.7,19.7c-16.2,0-45.3-24-55.9-24c-14.9,0-48.9,24-55.9,24
			c-26.4,0-40.5-14-48-19.4c0,0,8.8,35.9,36,54c20,13.3,17.3-2,28-16s17.9-21.3,35.7,14.7c9.7,19.7,27.7-54.2,42.2-30.6
			C320.4,70.5,329.7,47,358.3,4.8z"/>
		<path class="st0" d="M418.5,419.6l-1.1,24.3l28.1-7.6l1.1-25.5C446.6,410.8,430.1,416.7,418.5,419.6z"/>
		<path class="st0" d="M397.6,467v23.4l31-9.6v-24.3C428.6,456.4,420,461.1,397.6,467z"/>
		<path class="st0" d="M93.7,473.8l1.8,22.1l-28.2-6.1l-1.9-23.2C65.4,466.6,76.5,470.5,93.7,473.8z"/>
	</g>
</g>
</svg>
