<svg width="1024" height="1024" viewBox="0 0 1024 1024" fill="none" xmlns="http://www.w3.org/2000/svg">
<path d="M179.391 615.924C186.036 418.491 280.727 368.718 400.338 322.263H621.285C750.863 322.263 840.571 524.673 832.265 702.197C823.959 879.72 878.78 796.765 862.168 856.493C845.555 916.22 739.235 965.993 558.157 970.971C377.08 975.948 377.08 946.084 242.518 919.539C107.956 892.993 172.745 813.356 179.391 615.924Z" fill="white"/>
<path d="M392.032 307.331C380.957 275.808 339.536 189.535 262.453 96.6257C255.808 88.3302 258.466 75.0575 322.259 88.3302C455.159 55.1482 353.823 124.83 501.675 71.7393C619.956 29.2663 651.742 65.1028 652.849 88.3302C728.603 81.6938 736.466 91.0954 730.928 96.6257C664.478 155.026 624.608 261.429 612.979 307.331H392.032Z" fill="white"/>
<path d="M179.391 615.924C186.036 418.491 280.727 368.718 400.338 322.263H621.285C750.863 322.263 840.571 524.673 832.265 702.197C823.959 879.72 878.78 796.765 862.168 856.493C845.555 916.22 739.235 965.993 558.157 970.971C377.08 975.948 377.08 946.084 242.518 919.539C107.956 892.993 172.745 813.356 179.391 615.924Z" stroke="black"/>
<path d="M392.032 307.331C380.957 275.808 339.536 189.535 262.453 96.6257C255.808 88.3302 258.466 75.0575 322.259 88.3302C455.159 55.1482 353.823 124.83 501.675 71.7393C619.956 29.2663 651.742 65.1028 652.849 88.3302C728.603 81.6938 736.466 91.0954 730.928 96.6257C664.478 155.026 624.608 261.429 612.979 307.331H392.032Z" stroke="black"/>
<path d="M617.594 474.084C619.785 474.883 622.375 475.283 625.364 475.283C628.352 475.283 630.743 475.683 632.536 476.482C634.13 477.282 635.524 477.981 636.72 478.581C637.915 479.18 639.509 479.68 641.501 480.08C643.095 480.479 644.689 481.778 646.283 483.977C647.877 486.375 649.072 487.674 649.869 487.874C653.256 491.072 654.85 492.77 654.65 492.97C654.252 493.37 654.053 493.87 654.053 494.469C655.049 496.268 655.945 497.267 656.742 497.467C657.738 497.667 658.635 498.266 659.432 499.266C661.026 501.864 660.528 504.262 657.938 506.46C655.348 508.859 654.053 511.057 654.053 513.055C652.658 516.053 650.666 518.052 648.076 519.051C644.091 521.249 641.501 522.149 640.306 521.749C639.509 521.549 638.314 521.649 636.72 522.049C633.731 522.049 630.544 521.15 627.157 519.351C623.969 517.752 620.781 517.053 617.594 517.252C615.602 516.053 613.211 515.654 610.422 516.053C607.433 516.453 605.441 515.654 604.445 513.655C600.859 514.854 596.177 515.254 590.399 514.854C585.02 514.654 580.139 514.654 575.756 514.854C567.388 515.254 560.515 515.953 555.135 516.953C549.756 517.952 544.477 519.051 539.297 520.25C535.113 521.649 532.224 523.148 530.63 524.747C529.634 525.746 528.339 526.845 526.745 528.045L522.263 531.642C521.266 532.441 519.772 533.441 517.78 534.64C515.788 537.837 513.696 541.535 511.504 545.732C509.313 549.928 507.619 554.025 506.424 558.023C506.025 559.621 506.125 562.02 506.723 565.217C507.32 568.415 508.416 571.013 510.01 573.012C510.408 577.009 511.604 580.606 513.596 583.804C515.588 587.001 517.581 590.199 519.573 593.397C522.362 596.394 524.653 599.092 526.446 601.491C528.439 603.889 529.933 605.888 530.929 607.486C533.121 611.084 535.711 613.782 538.699 615.58C540.094 617.179 541.389 618.778 542.584 620.377C543.979 621.976 545.174 623.575 546.17 625.173C548.162 628.371 550.852 631.169 554.239 633.567C555.633 636.165 557.327 638.763 559.319 641.362C561.112 643.76 562.607 646.758 563.802 650.355C566.193 654.352 569.779 658.449 574.56 662.646C578.744 666.443 581.334 671.539 582.33 677.935C582.729 679.534 583.127 681.232 583.526 683.031C584.123 684.63 584.721 686.229 585.319 687.827C586.514 691.025 586.912 694.722 586.514 698.919C585.119 705.315 584.323 710.511 584.123 714.508C583.924 718.705 583.127 723.302 581.733 728.298C581.334 729.697 580.936 731.096 580.537 732.495C580.338 733.694 580.039 734.893 579.641 736.092C579.441 737.291 579.143 738.59 578.744 739.989C578.346 741.188 577.947 742.487 577.549 743.886C577.15 745.485 576.752 747.184 576.353 748.983C575.955 750.582 575.556 752.28 575.158 754.079C574.361 757.676 572.767 760.474 570.376 762.473C569.779 763.672 569.081 764.871 568.285 766.07C567.687 767.269 566.99 768.468 566.193 769.668C565.396 770.867 564.599 772.166 563.802 773.565C563.005 774.764 562.208 776.063 561.411 777.462C557.825 782.658 554.04 787.355 550.055 791.552C546.07 795.748 541.09 799.646 535.113 803.243C531.128 805.641 527.642 807.54 524.653 808.939C521.665 810.338 518.577 811.637 515.389 812.836L505.228 816.433C503.435 817.033 501.642 817.632 499.849 818.232C498.056 818.832 496.263 819.431 494.47 820.031L488.493 822.729C486.501 823.528 484.11 823.828 481.321 823.628C478.333 824.427 474.846 824.827 470.861 824.827C468.869 824.827 466.976 824.827 465.183 824.827C463.59 824.627 461.996 824.427 460.402 824.228C458.41 828.624 456.218 832.422 453.827 835.619C451.835 838.417 449.644 842.015 447.253 846.411C444.264 847.411 441.973 849.409 440.379 852.407C438.586 855.605 436.893 858.003 435.299 859.602C432.51 863.998 430.119 867.596 428.127 870.394C426.134 873.192 423.943 875.79 421.552 878.188C420.755 880.986 419.361 882.685 417.368 883.284C415.376 883.884 413.384 882.985 411.391 880.586C410.196 878.588 408.901 875.69 407.507 871.893C406.112 868.095 405.614 864.998 406.012 862.6C409.798 853.206 413.085 846.212 415.874 841.615C419.062 836.219 421.353 831.422 422.748 827.225C423.943 824.028 424.939 822.029 425.736 821.23C426.533 820.43 426.931 819.031 426.931 817.033C407.008 811.037 392.664 797.847 383.898 777.462C381.906 775.463 380.312 772.865 379.116 769.668C377.921 766.27 376.327 763.872 374.335 762.473C374.136 760.274 373.538 758.776 372.542 757.976C371.944 757.377 371.147 755.878 370.151 753.479C365.37 751.681 362.979 748.083 362.979 742.687C364.174 738.291 364.473 735.193 363.875 733.394C363.278 731.396 363.377 729.697 364.174 728.298C368.159 726.099 370.848 723.801 372.243 721.403C373.837 718.605 375.53 716.307 377.323 714.508C376.925 712.11 377.124 709.911 377.921 707.913C380.112 707.113 382.204 707.213 384.197 708.213L389.875 710.911C398.641 719.504 405.016 727.798 409.001 735.792C412.985 743.587 418.962 750.082 426.931 755.278C428.127 757.876 429.92 759.875 432.311 761.274C434.502 762.673 436.694 764.471 438.885 766.67C440.08 767.869 441.475 769.168 443.069 770.567C444.663 771.966 446.655 772.665 449.046 772.665C450.042 773.465 451.038 774.264 452.034 775.064C453.23 775.663 454.525 776.163 455.919 776.563C457.314 776.962 458.509 777.562 459.505 778.361C460.701 778.961 461.796 779.66 462.793 780.46C468.371 780.46 473.252 779.96 477.436 778.961C481.62 777.961 485.903 776.463 490.286 774.464C494.869 773.065 498.654 771.466 501.642 769.668C502.838 768.468 504.232 766.87 505.826 764.871C507.022 763.272 508.416 761.873 510.01 760.674C514.393 756.277 518.776 751.781 523.159 747.184C527.542 742.587 531.328 737.491 534.515 731.895C538.5 722.702 539.695 712.21 538.101 700.418C536.507 688.627 534.316 677.335 531.527 666.543C529.136 664.345 526.745 662.246 524.354 660.248C521.964 658.249 519.573 656.251 517.182 654.252C511.803 649.855 507.42 645.159 504.033 640.162C502.439 638.963 500.646 637.364 498.654 635.366C495.466 632.568 492.378 629.67 489.39 626.672C486.401 623.674 483.313 620.377 480.126 616.78C477.934 614.581 475.344 612.383 472.356 610.184C469.367 607.986 467.375 605.388 466.379 602.39C465.383 600.192 464.785 597.993 464.586 595.795C464.386 593.597 463.789 591.398 462.793 589.2C461.996 585.602 461.298 582.105 460.701 578.707C460.103 575.31 460.003 572.012 460.402 568.815C460.402 565.417 460.701 562.419 461.298 559.821C461.896 556.823 461.796 553.626 461 550.228C460.203 543.034 461.398 536.738 464.586 531.342C467.973 525.946 470.961 520.85 473.551 516.053C474.547 514.454 475.543 512.856 476.539 511.257C477.536 509.458 478.432 507.759 479.229 506.161C481.022 502.763 483.313 499.865 486.102 497.467C487.696 497.067 488.991 496.268 489.987 495.069C490.585 494.269 491.681 493.27 493.275 492.071C495.267 492.071 496.562 491.571 497.16 490.572C497.757 489.573 499.052 489.073 501.045 489.073C506.025 486.275 509.711 484.476 512.102 483.677C514.493 482.878 516.784 481.678 518.975 480.08L523.458 479.18C525.052 478.781 526.148 478.281 526.745 477.681C528.339 478.081 529.734 478.081 530.929 477.681C532.124 477.282 533.32 476.882 534.515 476.482C537.504 475.683 540.691 475.283 544.078 475.283H554.239C558.223 474.883 562.108 474.284 565.894 473.484C569.281 472.685 573.365 472.285 578.146 472.285C581.533 465.89 584.621 458.895 587.411 451.301C590.2 443.906 593.686 437.511 597.87 432.115C598.069 430.116 598.966 428.218 600.56 426.419C601.755 425.02 602.851 423.121 603.847 420.723C606.038 416.126 608.429 413.129 611.019 411.73C613.012 408.132 614.904 406.633 616.697 407.233C618.49 407.833 620.184 408.532 621.778 409.331C624.567 411.73 626.46 415.027 627.456 419.224C628.452 423.421 629.348 427.518 630.145 431.515C630.743 437.711 630.145 442.807 628.352 446.804C626.559 450.601 624.467 454.498 622.076 458.495C619.885 462.293 618.391 467.489 617.594 474.084Z" fill="black"/>
<rect x="0.5" y="0.5" width="1023" height="1023" stroke="white"/>
</svg>
