<svg width="1024" height="1024" viewBox="0 0 1024 1024" fill="none" xmlns="http://www.w3.org/2000/svg">
<path d="M180.069 615.923C186.714 418.491 281.406 368.718 401.016 322.263H621.964C751.542 322.263 841.25 524.673 832.943 702.197C824.637 879.72 879.459 796.765 862.846 856.493C846.233 916.22 739.913 965.993 558.836 970.971C377.759 975.948 377.759 946.084 243.197 919.538C108.635 892.993 173.424 813.356 180.069 615.923Z" fill="#1C1C1C"/>
<path d="M392.71 307.331C381.635 275.808 340.214 189.535 263.132 96.6257C256.487 88.3302 259.145 75.0575 322.937 88.3302C455.838 55.1482 354.501 124.83 502.353 71.7393C620.635 29.2663 652.42 65.1028 653.527 88.3302C729.281 81.6938 737.144 91.0954 731.607 96.6257C665.156 155.026 625.286 261.429 613.657 307.331H392.71Z" fill="#1C1C1C"/>
<path d="M180.069 615.923C186.714 418.491 281.406 368.718 401.016 322.263H621.964C751.542 322.263 841.25 524.673 832.943 702.197C824.637 879.72 879.459 796.765 862.846 856.493C846.233 916.22 739.913 965.993 558.836 970.971C377.759 975.948 377.759 946.084 243.197 919.538C108.635 892.993 173.424 813.356 180.069 615.923Z" stroke="black"/>
<path d="M392.71 307.331C381.635 275.808 340.214 189.535 263.132 96.6257C256.487 88.3302 259.145 75.0575 322.937 88.3302C455.838 55.1482 354.501 124.83 502.353 71.7393C620.635 29.2663 652.42 65.1028 653.527 88.3302C729.281 81.6938 737.144 91.0954 731.607 96.6257C665.156 155.026 625.286 261.429 613.657 307.331H392.71Z" stroke="black"/>
<path d="M618.272 474.084C620.464 474.883 623.054 475.283 626.042 475.283C629.03 475.283 631.421 475.683 633.214 476.482C634.808 477.282 636.203 477.981 637.398 478.581C638.593 479.18 640.187 479.68 642.18 480.08C643.773 480.479 645.367 481.778 646.961 483.977C648.555 486.375 649.75 487.674 650.547 487.874C653.934 491.072 655.528 492.77 655.329 492.97C654.93 493.37 654.731 493.87 654.731 494.469C655.727 496.268 656.624 497.267 657.421 497.467C658.417 497.667 659.313 498.266 660.11 499.266C661.704 501.864 661.206 504.262 658.616 506.46C656.026 508.859 654.731 511.057 654.731 513.055C653.336 516.053 651.344 518.052 648.754 519.051C644.77 521.249 642.18 522.149 640.984 521.749C640.187 521.549 638.992 521.649 637.398 522.049C634.41 522.049 631.222 521.15 627.835 519.351C624.647 517.752 621.46 517.053 618.272 517.252C616.28 516.053 613.889 515.654 611.1 516.053C608.111 516.453 606.119 515.654 605.123 513.655C601.537 514.854 596.855 515.254 591.077 514.854C585.698 514.654 580.817 514.654 576.434 514.854C568.066 515.254 561.193 515.953 555.814 516.953C550.434 517.952 545.155 519.051 539.975 520.25C535.791 521.649 532.902 523.148 531.308 524.747C530.312 525.746 529.017 526.845 527.423 528.045L522.941 531.642C521.945 532.441 520.45 533.441 518.458 534.64C516.466 537.837 514.374 541.535 512.182 545.732C509.991 549.928 508.297 554.025 507.102 558.023C506.704 559.621 506.803 562.02 507.401 565.217C507.999 568.415 509.094 571.013 510.688 573.012C511.087 577.009 512.282 580.606 514.274 583.804C516.267 587.001 518.259 590.199 520.251 593.397C523.04 596.394 525.332 599.092 527.125 601.491C529.117 603.889 530.611 605.888 531.607 607.486C533.799 611.084 536.389 613.782 539.377 615.58C540.772 617.179 542.067 618.778 543.262 620.377C544.657 621.976 545.852 623.575 546.848 625.173C548.841 628.371 551.53 631.169 554.917 633.567C556.312 636.165 558.005 638.763 559.997 641.362C561.791 643.76 563.285 646.758 564.48 650.355C566.871 654.352 570.457 658.449 575.238 662.646C579.422 666.443 582.012 671.539 583.008 677.935C583.407 679.534 583.805 681.232 584.204 683.031C584.801 684.63 585.399 686.229 585.997 687.827C587.192 691.025 587.591 694.722 587.192 698.919C585.798 705.315 585.001 710.511 584.801 714.508C584.602 718.705 583.805 723.302 582.411 728.298C582.012 729.697 581.614 731.096 581.215 732.495C581.016 733.694 580.717 734.893 580.319 736.092C580.12 737.291 579.821 738.59 579.422 739.989C579.024 741.188 578.625 742.487 578.227 743.886C577.828 745.485 577.43 747.184 577.032 748.983C576.633 750.582 576.235 752.28 575.836 754.079C575.039 757.676 573.445 760.474 571.055 762.473C570.457 763.672 569.76 764.871 568.963 766.07C568.365 767.269 567.668 768.468 566.871 769.668C566.074 770.867 565.277 772.166 564.48 773.565C563.683 774.764 562.886 776.063 562.089 777.462C558.503 782.658 554.718 787.355 550.733 791.552C546.749 795.748 541.768 799.646 535.791 803.243C531.807 805.641 528.32 807.54 525.332 808.939C522.343 810.338 519.255 811.637 516.067 812.836L505.907 816.433C504.114 817.033 502.321 817.632 500.528 818.232C498.734 818.832 496.941 819.431 495.148 820.031L489.171 822.729C487.179 823.528 484.788 823.828 481.999 823.628C479.011 824.427 475.524 824.827 471.54 824.827C469.547 824.827 467.655 824.827 465.862 824.827C464.268 824.627 462.674 824.427 461.08 824.228C459.088 828.624 456.896 832.422 454.506 835.619C452.513 838.417 450.322 842.015 447.931 846.411C444.943 847.411 442.651 849.409 441.058 852.407C439.264 855.605 437.571 858.003 435.977 859.602C433.188 863.998 430.797 867.596 428.805 870.394C426.813 873.192 424.621 875.79 422.23 878.188C421.433 880.986 420.039 882.685 418.047 883.284C416.054 883.884 414.062 882.985 412.07 880.586C410.874 878.588 409.579 875.69 408.185 871.893C406.79 868.095 406.292 864.998 406.691 862.6C410.476 853.206 413.763 846.212 416.552 841.615C419.74 836.219 422.031 831.422 423.426 827.225C424.621 824.028 425.617 822.029 426.414 821.23C427.211 820.43 427.61 819.031 427.61 817.033C407.687 811.037 393.342 797.847 384.576 777.462C382.584 775.463 380.99 772.865 379.795 769.668C378.599 766.27 377.005 763.872 375.013 762.473C374.814 760.274 374.216 758.776 373.22 757.976C372.622 757.377 371.825 755.878 370.829 753.479C366.048 751.681 363.657 748.083 363.657 742.687C364.852 738.291 365.151 735.193 364.554 733.394C363.956 731.396 364.055 729.697 364.852 728.298C368.837 726.099 371.527 723.801 372.921 721.403C374.515 718.605 376.208 716.307 378.001 714.508C377.603 712.11 377.802 709.911 378.599 707.913C380.791 707.113 382.883 707.213 384.875 708.213L390.553 710.911C399.319 719.504 405.694 727.798 409.679 735.792C413.664 743.587 419.64 750.082 427.61 755.278C428.805 757.876 430.598 759.875 432.989 761.274C435.18 762.673 437.372 764.471 439.563 766.67C440.759 767.869 442.153 769.168 443.747 770.567C445.341 771.966 447.333 772.665 449.724 772.665C450.72 773.465 451.716 774.264 452.712 775.064C453.908 775.663 455.203 776.163 456.597 776.563C457.992 776.962 459.187 777.562 460.184 778.361C461.379 778.961 462.475 779.66 463.471 780.46C469.049 780.46 473.93 779.96 478.114 778.961C482.298 777.961 486.581 776.463 490.965 774.464C495.547 773.065 499.332 771.466 502.321 769.668C503.516 768.468 504.911 766.87 506.504 764.871C507.7 763.272 509.094 761.873 510.688 760.674C515.071 756.277 519.454 751.781 523.837 747.184C528.22 742.587 532.006 737.491 535.193 731.895C539.178 722.702 540.373 712.21 538.78 700.418C537.186 688.627 534.994 677.335 532.205 666.543C529.814 664.345 527.423 662.246 525.033 660.248C522.642 658.249 520.251 656.251 517.86 654.252C512.481 649.855 508.098 645.159 504.711 640.162C503.117 638.963 501.324 637.364 499.332 635.366C496.144 632.568 493.056 629.67 490.068 626.672C487.08 623.674 483.991 620.377 480.804 616.78C478.612 614.581 476.022 612.383 473.034 610.184C470.045 607.986 468.053 605.388 467.057 602.39C466.061 600.192 465.463 597.993 465.264 595.795C465.065 593.597 464.467 591.398 463.471 589.2C462.674 585.602 461.977 582.105 461.379 578.707C460.781 575.31 460.682 572.012 461.08 568.815C461.08 565.417 461.379 562.419 461.977 559.821C462.574 556.823 462.475 553.626 461.678 550.228C460.881 543.034 462.076 536.738 465.264 531.342C468.651 525.946 471.639 520.85 474.229 516.053C475.225 514.454 476.222 512.856 477.218 511.257C478.214 509.458 479.11 507.759 479.907 506.161C481.7 502.763 483.991 499.865 486.781 497.467C488.375 497.067 489.67 496.268 490.666 495.069C491.263 494.269 492.359 493.27 493.953 492.071C495.945 492.071 497.24 491.571 497.838 490.572C498.436 489.573 499.731 489.073 501.723 489.073C506.704 486.275 510.389 484.476 512.78 483.677C515.171 482.878 517.462 481.678 519.654 480.08L524.136 479.18C525.73 478.781 526.826 478.281 527.423 477.681C529.017 478.081 530.412 478.081 531.607 477.681C532.803 477.282 533.998 476.882 535.193 476.482C538.182 475.683 541.37 475.283 544.756 475.283H554.917C558.902 474.883 562.787 474.284 566.572 473.484C569.959 472.685 574.043 472.285 578.825 472.285C582.212 465.89 585.3 458.895 588.089 451.301C590.878 443.906 594.365 437.511 598.548 432.115C598.748 430.116 599.644 428.218 601.238 426.419C602.433 425.02 603.529 423.121 604.525 420.723C606.717 416.126 609.107 413.129 611.697 411.73C613.69 408.132 615.582 406.633 617.375 407.233C619.169 407.833 620.862 408.532 622.456 409.331C625.245 411.73 627.138 415.027 628.134 419.224C629.13 423.421 630.027 427.518 630.823 431.515C631.421 437.711 630.823 442.807 629.03 446.804C627.237 450.601 625.145 454.498 622.755 458.495C620.563 462.293 619.069 467.489 618.272 474.084Z" fill="white"/>
<rect x="0.5" y="0.5" width="1023" height="1023" stroke="white"/>
</svg>
